<svg width="164" height="140" viewBox="0 0 164 140" fill="none" xmlns="http://www.w3.org/2000/svg">
<rect x="0.387634" y="0.947174" width="163.27" height="138.937" rx="44.1271" fill="#F47266"/>
<path d="M67.37 21.0565C57.0976 16.1782 42.7396 13.7885 23.5169 13.7037C21.704 13.6792 19.9267 14.205 18.4219 15.211C17.1868 16.0414 16.1758 17.161 15.4777 18.4712C14.7797 19.7814 14.416 21.2422 14.4187 22.725V103.634C14.4187 109.104 18.3309 113.23 23.5169 113.23C43.7233 113.23 63.9923 115.107 76.1327 126.521C76.2987 126.678 76.5075 126.783 76.733 126.823C76.9585 126.863 77.1908 126.836 77.401 126.745C77.6112 126.655 77.7901 126.505 77.9154 126.314C78.0407 126.124 78.1069 125.901 78.1058 125.673V30.338C78.1063 29.6948 77.968 29.059 77.7002 28.4735C77.4324 27.8881 77.0413 27.3666 76.5535 26.9444C73.7726 24.5797 70.6836 22.5992 67.37 21.0565ZM146.888 15.2025C145.382 14.199 143.605 13.6762 141.793 13.7037C122.57 13.7885 108.212 16.1669 97.9398 21.0565C94.6265 22.5964 91.5366 24.573 88.7535 26.9331C88.2668 27.356 87.8766 27.8777 87.6094 28.463C87.3421 29.0484 87.2039 29.6838 87.204 30.3267V125.667C87.2039 125.886 87.2687 126.1 87.3904 126.282C87.5121 126.465 87.6853 126.607 87.8881 126.692C88.091 126.777 88.3145 126.801 88.5307 126.76C88.7468 126.719 88.946 126.615 89.1032 126.462C96.4017 119.25 109.21 113.221 141.804 113.224C144.217 113.224 146.531 112.271 148.238 110.573C149.944 108.876 150.903 106.574 150.903 104.174V22.7279C150.906 21.2421 150.541 19.7784 149.841 18.4659C149.141 17.1535 148.127 16.0327 146.888 15.2025Z" fill="white"/>
</svg>
